<svg width="48" height="48" viewBox="0 0 48 48" fill="none" xmlns="http://www.w3.org/2000/svg">
<path d="M19.9821 27.9643C19.9821 30.0321 18.4821 30.6857 16.6393 30.6857H11.8071V25.0179H16.7357C18.7286 25.0286 19.9821 25.8536 19.9821 27.9643ZM19.1571 19.1464C19.1571 17.25 17.6893 16.8 16.0607 16.8H11.8179V21.6H16.3929C18.0107 21.6 19.1571 20.8929 19.1571 19.1464ZM33.3321 21.6321C31.3714 21.6321 30.0643 22.8536 29.9357 24.8143H36.6C36.4179 22.8321 35.3893 21.6321 33.3321 21.6321ZM48 5.14286V42.8571C48 45.6964 45.6964 48 42.8571 48H5.14286C2.30357 48 0 45.6964 0 42.8571V5.14286C0 2.30357 2.30357 0 5.14286 0H42.8571C45.6964 0 48 2.30357 48 5.14286ZM29.1107 16.3929H37.4464V14.3679H29.1107V16.3929ZM24.5036 28.2107C24.5036 25.6286 23.2821 23.4 20.7536 22.6821C22.5964 21.8036 23.5607 20.7857 23.5607 18.7179C23.5607 14.625 20.5071 13.6286 16.9821 13.6286H7.28571V34.2H17.2607C21 34.1786 24.5036 32.3893 24.5036 28.2107ZM40.7143 26.625C40.7143 22.2214 38.1321 18.5464 33.4714 18.5464C28.9286 18.5464 25.8536 21.9536 25.8536 26.4321C25.8536 31.0714 28.7786 34.2536 33.4714 34.2536C37.0286 34.2536 39.3321 32.6571 40.4464 29.2393H36.8357C36.4393 30.5143 34.8429 31.1786 33.6 31.1786C31.2 31.1786 29.9464 29.775 29.9464 27.3964H40.6821C40.6929 27.15 40.7143 26.8821 40.7143 26.625Z" fill="#A000FF"/>
</svg>
