<svg width="48" height="38" viewBox="0 0 48 38" fill="none" xmlns="http://www.w3.org/2000/svg">
<path d="M40.1492 1.23454L37.0783 3.70876L24.003 13.7293L10.9277 3.60979L7.85678 1.13557C7.13333 0.518367 6.2502 0.133615 5.31678 0.0289801C4.38337 -0.0756544 3.44071 0.104428 2.60557 0.546917C1.77043 0.989406 1.07952 1.67486 0.618437 2.51835C0.157355 3.36184 -0.0536378 4.3263 0.0115984 5.29225V33.9684C0.0115984 34.8608 0.35536 35.7167 0.967258 36.3478C1.57916 36.9788 2.40907 37.3333 3.27443 37.3333H10.9277V18.2324L24.003 28.3519L37.0783 18.2324V37.3333H44.7315C45.5969 37.3333 46.4268 36.9788 47.0387 36.3478C47.6506 35.7167 47.9944 34.8608 47.9944 33.9684V5.29225C48.0394 4.33464 47.8137 3.38415 47.3448 2.55632C46.8759 1.7285 46.1838 1.05899 45.3528 0.629176C44.5218 0.199366 43.5877 0.027766 42.6639 0.135235C41.7401 0.242704 40.8664 0.624614 40.1492 1.23454Z" fill="#A000FF"/>
</svg>
