<svg width="128" height="128" viewBox="0 0 128 128" fill="none" xmlns="http://www.w3.org/2000/svg">
<path d="M17.5698 62.68C14.7798 58.67 13.6598 54.89 16.3898 52.6C18.6998 50.66 22.0998 50.29 26.2998 55.14C26.2998 55.14 38.8498 69.72 43.1698 73.77C44.1498 74.68 45.3698 74.82 46.4798 73.67C47.4198 72.69 47.0798 71.84 46.2798 70.67C46.2798 70.67 28.5898 44.37 26.2698 41.16C22.3998 35.79 23.8898 32.32 25.6798 30.67C28.1698 28.36 32.5498 27.9 36.6198 33.48L58.0398 62.15C58.6898 62.84 59.7398 62.94 60.5098 62.4C60.6098 62.33 60.7098 62.26 60.8098 62.19C61.5998 61.63 61.8298 60.56 61.3498 59.72C57.5998 53.19 42.6798 27.17 40.4898 22.43C37.9698 16.96 39.0498 14.18 41.7198 12.57C44.8898 10.66 47.8698 10.8 51.4298 16.09C55.2898 21.85 70.2798 46.1 74.0898 52.62C74.5898 53.47 75.6598 53.79 76.5398 53.36C76.5498 53.35 76.5698 53.35 76.5798 53.34C77.4198 52.93 78.1798 52.1 77.8298 50.92C75.7498 44.06 65.5398 22.7 63.3998 17.79C60.4698 11.08 61.8998 8.80003 64.9298 7.26003C68.1098 5.65003 71.4198 6.92003 73.6698 11.4C75.1898 14.44 101.88 63.01 101.88 63.01C101.49 55.77 103.32 50.64 104.88 45.49C107.72 36.12 114.59 31.25 119.57 33.44C122.16 34.58 122.63 36.85 122.35 38.59C121.79 41.97 119.41 52.44 118.95 60.64C117.87 79.86 123.68 102.01 102.03 115.93C87.5398 125.25 72.0098 123.61 61.7498 116.44C49.3098 107.75 19.8498 65.96 17.5698 62.68Z" fill="#FFCA28"/>
<path d="M117.68 51.77C115.87 59.38 115.63 68.72 115.69 72.7C115.93 88.21 115.85 101.63 100.3 113.89C98.3896 115.4 92.3996 119.08 85.4296 121C83.1896 121.61 84.0396 122.33 85.4196 122.17C93.0296 121.29 98.7996 118.01 102.01 115.94C123.65 102.02 118.33 80.02 119.41 60.8C119.87 52.6 122.37 39.7 122.33 38.59C122.28 37.48 119.49 44.16 117.68 51.77Z" fill="#EDA600"/>
<path d="M77.5296 52.5701C77.5296 52.5701 75.9796 52.5801 74.5096 50.5301C70.0996 44.4001 56.2696 21.2501 52.2896 15.5701C47.7496 9.0901 43.5196 11.5701 42.5596 12.0901C42.5596 12.0901 46.0396 12.2101 47.9596 15.0601C51.8796 20.8701 66.7396 46.9101 71.4296 52.5001C74.4596 56.1101 77.5296 52.5701 77.5296 52.5701Z" fill="#EDA600"/>
<path d="M22.7098 54.54C24.0698 56 36.0098 70.17 40.4098 74.12C44.1898 77.51 47.0098 73.19 47.0098 73.19C47.0098 73.19 45.6198 73.38 43.7198 71.95C38.9998 68.38 27.8198 55.65 25.2998 52.97C21.5598 48.99 18.0798 51.48 17.3398 51.93C17.3498 51.93 19.4898 51.1 22.7098 54.54Z" fill="#EDA600"/>
<path d="M61.5898 61.2601C61.5898 61.2601 60.3098 62.1901 57.9598 59.4401C56.2498 57.4301 36.6198 33.4801 36.6198 33.4801C31.6998 27.4701 27.8298 29.2601 27.0298 29.7201C27.0298 29.7201 29.4998 29.5901 32.3898 32.9201C33.7098 34.4401 54.6598 61.1501 55.4998 62.0601C58.5698 65.4101 61.4098 62.5301 61.5898 61.2601Z" fill="#EDA600"/>
<path d="M101.8 57.83C101.8 57.83 75.7899 14.22 74.1299 11.25C70.4399 4.66002 66.1499 6.68002 65.4199 7.01002C65.4199 7.01002 67.8099 6.33002 70.6199 11.11C72.1199 13.65 91.2299 48.01 97.3299 58.99C97.8099 61.04 97.7699 63.71 96.2299 65.43C90.7099 71.62 83.6699 77.94 85.7399 93.61C86.2599 97.58 87.7299 101.34 88.8199 103.15C90.1999 105.42 91.7899 104.56 91.0899 102.86C90.6199 101.71 89.8699 99 89.7199 97.84C89.0199 92.44 86.6599 83 97.2399 71.68C99.0299 69.79 103.58 64.08 101.8 57.83Z" fill="#EDA600"/>
<path d="M103.49 30.96C102.1 26.03 99.9399 21.51 97.1399 17.59C94.6199 14.06 91.5699 11.02 88.0899 8.58C87.6499 8.27 87.0899 7.31 87.5699 6.38C88.0499 5.45 89.0899 5.57 89.4799 5.73C93.8299 7.52 97.3899 10.61 100.33 14.85C103.82 19.89 105.55 24.64 106.44 29.95C106.54 30.53 106.52 31.75 105.28 32.07C104.05 32.39 103.63 31.44 103.49 30.96Z" fill="#B0BEC5"/>
<path d="M96.6896 36.2501C95.2996 31.3201 93.1396 26.8001 90.3396 22.8801C87.8196 19.3501 84.7696 16.3101 81.2896 13.8701C80.8496 13.5601 80.2896 12.6001 80.7696 11.6701C81.2496 10.7301 82.2896 10.8601 82.6796 11.0201C87.0296 12.8101 90.5896 15.9001 93.5296 20.1401C97.0196 25.1801 98.7496 29.9301 99.6396 35.2401C99.7396 35.8201 99.7196 37.0401 98.4796 37.3601C97.2596 37.6801 96.8296 36.7401 96.6896 36.2501Z" fill="#B0BEC5"/>
<path d="M8.55985 77.4599C10.2798 82.2899 12.7298 86.6499 15.7798 90.3799C18.5298 93.7299 21.7698 96.5699 25.3998 98.7799C25.8598 99.0599 26.4798 99.9799 26.0598 100.94C25.6398 101.91 24.5998 101.85 24.1898 101.72C19.7298 100.22 15.9698 97.3699 12.7598 93.3299C8.94985 88.5299 6.89985 83.9099 5.65985 78.6699C5.51985 78.0899 5.45985 76.8799 6.67985 76.4799C7.89985 76.0799 8.38985 76.9899 8.55985 77.4599Z" fill="#B0BEC5"/>
<path d="M14.99 71.7301C16.71 76.5601 19.16 80.9201 22.21 84.6501C24.96 88.0001 28.2 90.8401 31.83 93.0501C32.29 93.3301 32.91 94.2501 32.49 95.2101C32.07 96.1801 31.03 96.1201 30.62 95.9901C26.16 94.4901 22.4 91.6401 19.19 87.6001C15.38 82.8001 13.33 78.1801 12.09 72.9401C11.95 72.3601 11.89 71.1501 13.11 70.7501C14.33 70.3401 14.82 71.2601 14.99 71.7301Z" fill="#B0BEC5"/>
</svg>
