<svg width="100" height="100" viewBox="0 0 100 100" fill="none" xmlns="http://www.w3.org/2000/svg">
<path fill-rule="evenodd" clip-rule="evenodd" d="M14 0C6.26801 0 0 6.26801 0 14V86C0 93.732 6.26801 100 14 100H86C93.732 100 100 93.732 100 86V14C100 6.26801 93.732 0 86 0H14ZM55.192 67V33.16H43.864L35.56 55.144L27.064 33.16H15.688V67H25.096V48.184L31.528 67H39.4L45.784 48.328V67H55.192ZM82.9634 55.576V33.16H73.5554V55.576C73.5554 57.752 72.6914 58.84 70.9634 58.84C69.0434 58.84 68.0674 57.512 68.0354 54.856H58.7234C58.7234 58.888 59.8594 61.976 62.1314 64.12C64.4354 66.264 67.5074 67.336 71.3474 67.336C74.9634 67.336 77.7954 66.328 79.8434 64.312C81.9234 62.296 82.9634 59.384 82.9634 55.576Z" fill="#A000FF"/>
</svg>
